<?xml version="1.0" encoding="utf-8" standalone="no"?>
<!DOCTYPE svg PUBLIC "-//W3C//DTD SVG 1.1//EN"
  "http://www.w3.org/Graphics/SVG/1.1/DTD/svg11.dtd">
<!-- Created with matplotlib (http://matplotlib.org/) -->
<svg height="345pt" version="1.1" viewBox="0 0 460 345" width="460pt" xmlns="http://www.w3.org/2000/svg" xmlns:xlink="http://www.w3.org/1999/xlink">
 <defs>
  <style type="text/css">
*{stroke-linecap:butt;stroke-linejoin:round;}
  </style>
 </defs>
 <g id="figure_1">
  <g id="patch_1">
   <path d="M 0 345.6 
L 460.8 345.6 
L 460.8 0 
L 0 0 
z
" style="fill:#ffffff;"/>
  </g>
  <g id="axes_1">
   <g id="patch_2">
    <path d="M 46.305 255.511594 
L 414.495 255.511594 
L 414.495 26.16 
L 46.305 26.16 
z
" style="fill:#ffffff;"/>
   </g>
   <g id="patch_3">
    <path clip-path="url(#p8eb40d3ede)" d="M 63.040909 255.511594 
L 97.370979 255.511594 
L 97.370979 255.511594 
L 63.040909 255.511594 
z
" style="fill:#336699;fill-opacity:0.7;"/>
   </g>
   <g id="patch_4">
    <path clip-path="url(#p8eb40d3ede)" d="M 105.953497 255.511594 
L 140.283566 255.511594 
L 140.283566 255.511594 
L 105.953497 255.511594 
z
" style="fill:#336699;fill-opacity:0.7;"/>
   </g>
   <g id="patch_5">
    <path clip-path="url(#p8eb40d3ede)" d="M 148.866084 255.511594 
L 183.196154 255.511594 
L 183.196154 37.081504 
L 148.866084 37.081504 
z
" style="fill:#336699;fill-opacity:0.7;"/>
   </g>
   <g id="patch_6">
    <path clip-path="url(#p8eb40d3ede)" d="M 191.778671 255.511594 
L 226.108741 255.511594 
L 226.108741 255.511594 
L 191.778671 255.511594 
z
" style="fill:#336699;fill-opacity:0.7;"/>
   </g>
   <g id="patch_7">
    <path clip-path="url(#p8eb40d3ede)" d="M 234.691259 255.511594 
L 269.021329 255.511594 
L 269.021329 97.338081 
L 234.691259 97.338081 
z
" style="fill:#336699;fill-opacity:0.7;"/>
   </g>
   <g id="patch_8">
    <path clip-path="url(#p8eb40d3ede)" d="M 277.603846 255.511594 
L 311.933916 255.511594 
L 311.933916 255.511594 
L 277.603846 255.511594 
z
" style="fill:#336699;fill-opacity:0.7;"/>
   </g>
   <g id="patch_9">
    <path clip-path="url(#p8eb40d3ede)" d="M 320.516434 255.511594 
L 354.846503 255.511594 
L 354.846503 255.511594 
L 320.516434 255.511594 
z
" style="fill:#336699;fill-opacity:0.7;"/>
   </g>
   <g id="patch_10">
    <path clip-path="url(#p8eb40d3ede)" d="M 363.429021 255.511594 
L 397.759091 255.511594 
L 397.759091 255.511594 
L 363.429021 255.511594 
z
" style="fill:#336699;fill-opacity:0.7;"/>
   </g>
   <g id="matplotlib.axis_1">
    <g id="xtick_1">
     <g id="line2d_1">
      <path clip-path="url(#p8eb40d3ede)" d="M 80.205944 255.511594 
L 80.205944 26.16 
" style="fill:none;stroke:#b0b0b0;stroke-dasharray:0.8,1.32;stroke-dashoffset:0;stroke-width:0.8;"/>
     </g>
     <g id="line2d_2">
      <defs>
       <path d="M 0 0 
L 0 3.5 
" id="mf953726b19" style="stroke:#000000;stroke-width:0.8;"/>
      </defs>
      <g>
       <use style="stroke:#000000;stroke-width:0.8;" x="80.205944" xlink:href="#mf953726b19" y="255.511594"/>
      </g>
     </g>
     <g id="text_1">
      <!-- TNROnline -->
      <defs>
       <path d="M -0.296875 72.90625 
L 61.375 72.90625 
L 61.375 64.59375 
L 35.5 64.59375 
L 35.5 0 
L 25.59375 0 
L 25.59375 64.59375 
L -0.296875 64.59375 
z
" id="DejaVuSans-54"/>
       <path d="M 9.8125 72.90625 
L 23.09375 72.90625 
L 55.421875 11.921875 
L 55.421875 72.90625 
L 64.984375 72.90625 
L 64.984375 0 
L 51.703125 0 
L 19.390625 60.984375 
L 19.390625 0 
L 9.8125 0 
z
" id="DejaVuSans-4e"/>
       <path d="M 44.390625 34.1875 
Q 47.5625 33.109375 50.5625 29.59375 
Q 53.5625 26.078125 56.59375 19.921875 
L 66.609375 0 
L 56 0 
L 46.6875 18.703125 
Q 43.0625 26.03125 39.671875 28.421875 
Q 36.28125 30.8125 30.421875 30.8125 
L 19.671875 30.8125 
L 19.671875 0 
L 9.8125 0 
L 9.8125 72.90625 
L 32.078125 72.90625 
Q 44.578125 72.90625 50.734375 67.671875 
Q 56.890625 62.453125 56.890625 51.90625 
Q 56.890625 45.015625 53.6875 40.46875 
Q 50.484375 35.9375 44.390625 34.1875 
z
M 19.671875 64.796875 
L 19.671875 38.921875 
L 32.078125 38.921875 
Q 39.203125 38.921875 42.84375 42.21875 
Q 46.484375 45.515625 46.484375 51.90625 
Q 46.484375 58.296875 42.84375 61.546875 
Q 39.203125 64.796875 32.078125 64.796875 
z
" id="DejaVuSans-52"/>
       <path d="M 39.40625 66.21875 
Q 28.65625 66.21875 22.328125 58.203125 
Q 16.015625 50.203125 16.015625 36.375 
Q 16.015625 22.609375 22.328125 14.59375 
Q 28.65625 6.59375 39.40625 6.59375 
Q 50.140625 6.59375 56.421875 14.59375 
Q 62.703125 22.609375 62.703125 36.375 
Q 62.703125 50.203125 56.421875 58.203125 
Q 50.140625 66.21875 39.40625 66.21875 
z
M 39.40625 74.21875 
Q 54.734375 74.21875 63.90625 63.9375 
Q 73.09375 53.65625 73.09375 36.375 
Q 73.09375 19.140625 63.90625 8.859375 
Q 54.734375 -1.421875 39.40625 -1.421875 
Q 24.03125 -1.421875 14.8125 8.828125 
Q 5.609375 19.09375 5.609375 36.375 
Q 5.609375 53.65625 14.8125 63.9375 
Q 24.03125 74.21875 39.40625 74.21875 
z
" id="DejaVuSans-4f"/>
       <path d="M 54.890625 33.015625 
L 54.890625 0 
L 45.90625 0 
L 45.90625 32.71875 
Q 45.90625 40.484375 42.875 44.328125 
Q 39.84375 48.1875 33.796875 48.1875 
Q 26.515625 48.1875 22.3125 43.546875 
Q 18.109375 38.921875 18.109375 30.90625 
L 18.109375 0 
L 9.078125 0 
L 9.078125 54.6875 
L 18.109375 54.6875 
L 18.109375 46.1875 
Q 21.34375 51.125 25.703125 53.5625 
Q 30.078125 56 35.796875 56 
Q 45.21875 56 50.046875 50.171875 
Q 54.890625 44.34375 54.890625 33.015625 
z
" id="DejaVuSans-6e"/>
       <path d="M 9.421875 75.984375 
L 18.40625 75.984375 
L 18.40625 0 
L 9.421875 0 
z
" id="DejaVuSans-6c"/>
       <path d="M 9.421875 54.6875 
L 18.40625 54.6875 
L 18.40625 0 
L 9.421875 0 
z
M 9.421875 75.984375 
L 18.40625 75.984375 
L 18.40625 64.59375 
L 9.421875 64.59375 
z
" id="DejaVuSans-69"/>
       <path d="M 56.203125 29.59375 
L 56.203125 25.203125 
L 14.890625 25.203125 
Q 15.484375 15.921875 20.484375 11.0625 
Q 25.484375 6.203125 34.421875 6.203125 
Q 39.59375 6.203125 44.453125 7.46875 
Q 49.3125 8.734375 54.109375 11.28125 
L 54.109375 2.78125 
Q 49.265625 0.734375 44.1875 -0.34375 
Q 39.109375 -1.421875 33.890625 -1.421875 
Q 20.796875 -1.421875 13.15625 6.1875 
Q 5.515625 13.8125 5.515625 26.8125 
Q 5.515625 40.234375 12.765625 48.109375 
Q 20.015625 56 32.328125 56 
Q 43.359375 56 49.78125 48.890625 
Q 56.203125 41.796875 56.203125 29.59375 
z
M 47.21875 32.234375 
Q 47.125 39.59375 43.09375 43.984375 
Q 39.0625 48.390625 32.421875 48.390625 
Q 24.90625 48.390625 20.390625 44.140625 
Q 15.875 39.890625 15.1875 32.171875 
z
" id="DejaVuSans-65"/>
      </defs>
      <g transform="translate(41.404564 305.21532)rotate(-45)scale(0.1 -0.1)">
       <use xlink:href="#DejaVuSans-54"/>
       <use x="61.083984" xlink:href="#DejaVuSans-4e"/>
       <use x="135.888672" xlink:href="#DejaVuSans-52"/>
       <use x="205.371094" xlink:href="#DejaVuSans-4f"/>
       <use x="284.082031" xlink:href="#DejaVuSans-6e"/>
       <use x="347.460938" xlink:href="#DejaVuSans-6c"/>
       <use x="375.244141" xlink:href="#DejaVuSans-69"/>
       <use x="403.027344" xlink:href="#DejaVuSans-6e"/>
       <use x="466.40625" xlink:href="#DejaVuSans-65"/>
      </g>
     </g>
    </g>
    <g id="xtick_2">
     <g id="line2d_3">
      <path clip-path="url(#p8eb40d3ede)" d="M 123.118531 255.511594 
L 123.118531 26.16 
" style="fill:none;stroke:#b0b0b0;stroke-dasharray:0.8,1.32;stroke-dashoffset:0;stroke-width:0.8;"/>
     </g>
     <g id="line2d_4">
      <g>
       <use style="stroke:#000000;stroke-width:0.8;" x="123.118531" xlink:href="#mf953726b19" y="255.511594"/>
      </g>
     </g>
     <g id="text_2">
      <!-- stuppidcom -->
      <defs>
       <path d="M 44.28125 53.078125 
L 44.28125 44.578125 
Q 40.484375 46.53125 36.375 47.5 
Q 32.28125 48.484375 27.875 48.484375 
Q 21.1875 48.484375 17.84375 46.4375 
Q 14.5 44.390625 14.5 40.28125 
Q 14.5 37.15625 16.890625 35.375 
Q 19.28125 33.59375 26.515625 31.984375 
L 29.59375 31.296875 
Q 39.15625 29.25 43.1875 25.515625 
Q 47.21875 21.78125 47.21875 15.09375 
Q 47.21875 7.46875 41.1875 3.015625 
Q 35.15625 -1.421875 24.609375 -1.421875 
Q 20.21875 -1.421875 15.453125 -0.5625 
Q 10.6875 0.296875 5.421875 2 
L 5.421875 11.28125 
Q 10.40625 8.6875 15.234375 7.390625 
Q 20.0625 6.109375 24.8125 6.109375 
Q 31.15625 6.109375 34.5625 8.28125 
Q 37.984375 10.453125 37.984375 14.40625 
Q 37.984375 18.0625 35.515625 20.015625 
Q 33.0625 21.96875 24.703125 23.78125 
L 21.578125 24.515625 
Q 13.234375 26.265625 9.515625 29.90625 
Q 5.8125 33.546875 5.8125 39.890625 
Q 5.8125 47.609375 11.28125 51.796875 
Q 16.75 56 26.8125 56 
Q 31.78125 56 36.171875 55.265625 
Q 40.578125 54.546875 44.28125 53.078125 
z
" id="DejaVuSans-73"/>
       <path d="M 18.3125 70.21875 
L 18.3125 54.6875 
L 36.8125 54.6875 
L 36.8125 47.703125 
L 18.3125 47.703125 
L 18.3125 18.015625 
Q 18.3125 11.328125 20.140625 9.421875 
Q 21.96875 7.515625 27.59375 7.515625 
L 36.8125 7.515625 
L 36.8125 0 
L 27.59375 0 
Q 17.1875 0 13.234375 3.875 
Q 9.28125 7.765625 9.28125 18.015625 
L 9.28125 47.703125 
L 2.6875 47.703125 
L 2.6875 54.6875 
L 9.28125 54.6875 
L 9.28125 70.21875 
z
" id="DejaVuSans-74"/>
       <path d="M 8.5 21.578125 
L 8.5 54.6875 
L 17.484375 54.6875 
L 17.484375 21.921875 
Q 17.484375 14.15625 20.5 10.265625 
Q 23.53125 6.390625 29.59375 6.390625 
Q 36.859375 6.390625 41.078125 11.03125 
Q 45.3125 15.671875 45.3125 23.6875 
L 45.3125 54.6875 
L 54.296875 54.6875 
L 54.296875 0 
L 45.3125 0 
L 45.3125 8.40625 
Q 42.046875 3.421875 37.71875 1 
Q 33.40625 -1.421875 27.6875 -1.421875 
Q 18.265625 -1.421875 13.375 4.4375 
Q 8.5 10.296875 8.5 21.578125 
z
M 31.109375 56 
z
" id="DejaVuSans-75"/>
       <path d="M 18.109375 8.203125 
L 18.109375 -20.796875 
L 9.078125 -20.796875 
L 9.078125 54.6875 
L 18.109375 54.6875 
L 18.109375 46.390625 
Q 20.953125 51.265625 25.265625 53.625 
Q 29.59375 56 35.59375 56 
Q 45.5625 56 51.78125 48.09375 
Q 58.015625 40.1875 58.015625 27.296875 
Q 58.015625 14.40625 51.78125 6.484375 
Q 45.5625 -1.421875 35.59375 -1.421875 
Q 29.59375 -1.421875 25.265625 0.953125 
Q 20.953125 3.328125 18.109375 8.203125 
z
M 48.6875 27.296875 
Q 48.6875 37.203125 44.609375 42.84375 
Q 40.53125 48.484375 33.40625 48.484375 
Q 26.265625 48.484375 22.1875 42.84375 
Q 18.109375 37.203125 18.109375 27.296875 
Q 18.109375 17.390625 22.1875 11.75 
Q 26.265625 6.109375 33.40625 6.109375 
Q 40.53125 6.109375 44.609375 11.75 
Q 48.6875 17.390625 48.6875 27.296875 
z
" id="DejaVuSans-70"/>
       <path d="M 45.40625 46.390625 
L 45.40625 75.984375 
L 54.390625 75.984375 
L 54.390625 0 
L 45.40625 0 
L 45.40625 8.203125 
Q 42.578125 3.328125 38.25 0.953125 
Q 33.9375 -1.421875 27.875 -1.421875 
Q 17.96875 -1.421875 11.734375 6.484375 
Q 5.515625 14.40625 5.515625 27.296875 
Q 5.515625 40.1875 11.734375 48.09375 
Q 17.96875 56 27.875 56 
Q 33.9375 56 38.25 53.625 
Q 42.578125 51.265625 45.40625 46.390625 
z
M 14.796875 27.296875 
Q 14.796875 17.390625 18.875 11.75 
Q 22.953125 6.109375 30.078125 6.109375 
Q 37.203125 6.109375 41.296875 11.75 
Q 45.40625 17.390625 45.40625 27.296875 
Q 45.40625 37.203125 41.296875 42.84375 
Q 37.203125 48.484375 30.078125 48.484375 
Q 22.953125 48.484375 18.875 42.84375 
Q 14.796875 37.203125 14.796875 27.296875 
z
" id="DejaVuSans-64"/>
       <path d="M 48.78125 52.59375 
L 48.78125 44.1875 
Q 44.96875 46.296875 41.140625 47.34375 
Q 37.3125 48.390625 33.40625 48.390625 
Q 24.65625 48.390625 19.8125 42.84375 
Q 14.984375 37.3125 14.984375 27.296875 
Q 14.984375 17.28125 19.8125 11.734375 
Q 24.65625 6.203125 33.40625 6.203125 
Q 37.3125 6.203125 41.140625 7.25 
Q 44.96875 8.296875 48.78125 10.40625 
L 48.78125 2.09375 
Q 45.015625 0.34375 40.984375 -0.53125 
Q 36.96875 -1.421875 32.421875 -1.421875 
Q 20.0625 -1.421875 12.78125 6.34375 
Q 5.515625 14.109375 5.515625 27.296875 
Q 5.515625 40.671875 12.859375 48.328125 
Q 20.21875 56 33.015625 56 
Q 37.15625 56 41.109375 55.140625 
Q 45.0625 54.296875 48.78125 52.59375 
z
" id="DejaVuSans-63"/>
       <path d="M 30.609375 48.390625 
Q 23.390625 48.390625 19.1875 42.75 
Q 14.984375 37.109375 14.984375 27.296875 
Q 14.984375 17.484375 19.15625 11.84375 
Q 23.34375 6.203125 30.609375 6.203125 
Q 37.796875 6.203125 41.984375 11.859375 
Q 46.1875 17.53125 46.1875 27.296875 
Q 46.1875 37.015625 41.984375 42.703125 
Q 37.796875 48.390625 30.609375 48.390625 
z
M 30.609375 56 
Q 42.328125 56 49.015625 48.375 
Q 55.71875 40.765625 55.71875 27.296875 
Q 55.71875 13.875 49.015625 6.21875 
Q 42.328125 -1.421875 30.609375 -1.421875 
Q 18.84375 -1.421875 12.171875 6.21875 
Q 5.515625 13.875 5.515625 27.296875 
Q 5.515625 40.765625 12.171875 48.375 
Q 18.84375 56 30.609375 56 
z
" id="DejaVuSans-6f"/>
       <path d="M 52 44.1875 
Q 55.375 50.25 60.0625 53.125 
Q 64.75 56 71.09375 56 
Q 79.640625 56 84.28125 50.015625 
Q 88.921875 44.046875 88.921875 33.015625 
L 88.921875 0 
L 79.890625 0 
L 79.890625 32.71875 
Q 79.890625 40.578125 77.09375 44.375 
Q 74.3125 48.1875 68.609375 48.1875 
Q 61.625 48.1875 57.5625 43.546875 
Q 53.515625 38.921875 53.515625 30.90625 
L 53.515625 0 
L 44.484375 0 
L 44.484375 32.71875 
Q 44.484375 40.625 41.703125 44.40625 
Q 38.921875 48.1875 33.109375 48.1875 
Q 26.21875 48.1875 22.15625 43.53125 
Q 18.109375 38.875 18.109375 30.90625 
L 18.109375 0 
L 9.078125 0 
L 9.078125 54.6875 
L 18.109375 54.6875 
L 18.109375 46.1875 
Q 21.1875 51.21875 25.484375 53.609375 
Q 29.78125 56 35.6875 56 
Q 41.65625 56 45.828125 52.96875 
Q 50 49.953125 52 44.1875 
z
" id="DejaVuSans-6d"/>
      </defs>
      <g transform="translate(80.177262 309.355209)rotate(-45)scale(0.1 -0.1)">
       <use xlink:href="#DejaVuSans-73"/>
       <use x="52.099609" xlink:href="#DejaVuSans-74"/>
       <use x="91.308594" xlink:href="#DejaVuSans-75"/>
       <use x="154.6875" xlink:href="#DejaVuSans-70"/>
       <use x="218.164062" xlink:href="#DejaVuSans-70"/>
       <use x="281.640625" xlink:href="#DejaVuSans-69"/>
       <use x="309.423828" xlink:href="#DejaVuSans-64"/>
       <use x="372.900391" xlink:href="#DejaVuSans-63"/>
       <use x="427.880859" xlink:href="#DejaVuSans-6f"/>
       <use x="489.0625" xlink:href="#DejaVuSans-6d"/>
      </g>
     </g>
    </g>
    <g id="xtick_3">
     <g id="line2d_5">
      <path clip-path="url(#p8eb40d3ede)" d="M 166.031119 255.511594 
L 166.031119 26.16 
" style="fill:none;stroke:#b0b0b0;stroke-dasharray:0.8,1.32;stroke-dashoffset:0;stroke-width:0.8;"/>
     </g>
     <g id="line2d_6">
      <g>
       <use style="stroke:#000000;stroke-width:0.8;" x="166.031119" xlink:href="#mf953726b19" y="255.511594"/>
      </g>
     </g>
     <g id="text_3">
      <!-- RealAlexJones -->
      <defs>
       <path d="M 34.28125 27.484375 
Q 23.390625 27.484375 19.1875 25 
Q 14.984375 22.515625 14.984375 16.5 
Q 14.984375 11.71875 18.140625 8.90625 
Q 21.296875 6.109375 26.703125 6.109375 
Q 34.1875 6.109375 38.703125 11.40625 
Q 43.21875 16.703125 43.21875 25.484375 
L 43.21875 27.484375 
z
M 52.203125 31.203125 
L 52.203125 0 
L 43.21875 0 
L 43.21875 8.296875 
Q 40.140625 3.328125 35.546875 0.953125 
Q 30.953125 -1.421875 24.3125 -1.421875 
Q 15.921875 -1.421875 10.953125 3.296875 
Q 6 8.015625 6 15.921875 
Q 6 25.140625 12.171875 29.828125 
Q 18.359375 34.515625 30.609375 34.515625 
L 43.21875 34.515625 
L 43.21875 35.40625 
Q 43.21875 41.609375 39.140625 45 
Q 35.0625 48.390625 27.6875 48.390625 
Q 23 48.390625 18.546875 47.265625 
Q 14.109375 46.140625 10.015625 43.890625 
L 10.015625 52.203125 
Q 14.9375 54.109375 19.578125 55.046875 
Q 24.21875 56 28.609375 56 
Q 40.484375 56 46.34375 49.84375 
Q 52.203125 43.703125 52.203125 31.203125 
z
" id="DejaVuSans-61"/>
       <path d="M 34.1875 63.1875 
L 20.796875 26.90625 
L 47.609375 26.90625 
z
M 28.609375 72.90625 
L 39.796875 72.90625 
L 67.578125 0 
L 57.328125 0 
L 50.6875 18.703125 
L 17.828125 18.703125 
L 11.1875 0 
L 0.78125 0 
z
" id="DejaVuSans-41"/>
       <path d="M 54.890625 54.6875 
L 35.109375 28.078125 
L 55.90625 0 
L 45.3125 0 
L 29.390625 21.484375 
L 13.484375 0 
L 2.875 0 
L 24.125 28.609375 
L 4.6875 54.6875 
L 15.28125 54.6875 
L 29.78125 35.203125 
L 44.28125 54.6875 
z
" id="DejaVuSans-78"/>
       <path d="M 9.8125 72.90625 
L 19.671875 72.90625 
L 19.671875 5.078125 
Q 19.671875 -8.109375 14.671875 -14.0625 
Q 9.671875 -20.015625 -1.421875 -20.015625 
L -5.171875 -20.015625 
L -5.171875 -11.71875 
L -2.09375 -11.71875 
Q 4.4375 -11.71875 7.125 -8.046875 
Q 9.8125 -4.390625 9.8125 5.078125 
z
" id="DejaVuSans-4a"/>
      </defs>
      <g transform="translate(114.738256 317.706803)rotate(-45)scale(0.1 -0.1)">
       <use xlink:href="#DejaVuSans-52"/>
       <use x="69.419922" xlink:href="#DejaVuSans-65"/>
       <use x="130.943359" xlink:href="#DejaVuSans-61"/>
       <use x="192.222656" xlink:href="#DejaVuSans-6c"/>
       <use x="220.005859" xlink:href="#DejaVuSans-41"/>
       <use x="288.414062" xlink:href="#DejaVuSans-6c"/>
       <use x="316.197266" xlink:href="#DejaVuSans-65"/>
       <use x="377.705078" xlink:href="#DejaVuSans-78"/>
       <use x="436.884766" xlink:href="#DejaVuSans-4a"/>
       <use x="466.376953" xlink:href="#DejaVuSans-6f"/>
       <use x="527.558594" xlink:href="#DejaVuSans-6e"/>
       <use x="590.9375" xlink:href="#DejaVuSans-65"/>
       <use x="652.460938" xlink:href="#DejaVuSans-73"/>
      </g>
     </g>
    </g>
    <g id="xtick_4">
     <g id="line2d_7">
      <path clip-path="url(#p8eb40d3ede)" d="M 208.943706 255.511594 
L 208.943706 26.16 
" style="fill:none;stroke:#b0b0b0;stroke-dasharray:0.8,1.32;stroke-dashoffset:0;stroke-width:0.8;"/>
     </g>
     <g id="line2d_8">
      <g>
       <use style="stroke:#000000;stroke-width:0.8;" x="208.943706" xlink:href="#mf953726b19" y="255.511594"/>
      </g>
     </g>
     <g id="text_4">
      <!-- NewsWndr -->
      <defs>
       <path d="M 4.203125 54.6875 
L 13.1875 54.6875 
L 24.421875 12.015625 
L 35.59375 54.6875 
L 46.1875 54.6875 
L 57.421875 12.015625 
L 68.609375 54.6875 
L 77.59375 54.6875 
L 63.28125 0 
L 52.6875 0 
L 40.921875 44.828125 
L 29.109375 0 
L 18.5 0 
z
" id="DejaVuSans-77"/>
       <path d="M 3.328125 72.90625 
L 13.28125 72.90625 
L 28.609375 11.28125 
L 43.890625 72.90625 
L 54.984375 72.90625 
L 70.3125 11.28125 
L 85.59375 72.90625 
L 95.609375 72.90625 
L 77.296875 0 
L 64.890625 0 
L 49.515625 63.28125 
L 33.984375 0 
L 21.578125 0 
z
" id="DejaVuSans-57"/>
       <path d="M 41.109375 46.296875 
Q 39.59375 47.171875 37.8125 47.578125 
Q 36.03125 48 33.890625 48 
Q 26.265625 48 22.1875 43.046875 
Q 18.109375 38.09375 18.109375 28.8125 
L 18.109375 0 
L 9.078125 0 
L 9.078125 54.6875 
L 18.109375 54.6875 
L 18.109375 46.1875 
Q 20.953125 51.171875 25.484375 53.578125 
Q 30.03125 56 36.53125 56 
Q 37.453125 56 38.578125 55.875 
Q 39.703125 55.765625 41.0625 55.515625 
z
" id="DejaVuSans-72"/>
      </defs>
      <g transform="translate(169.497092 305.860554)rotate(-45)scale(0.1 -0.1)">
       <use xlink:href="#DejaVuSans-4e"/>
       <use x="74.804688" xlink:href="#DejaVuSans-65"/>
       <use x="136.328125" xlink:href="#DejaVuSans-77"/>
       <use x="218.115234" xlink:href="#DejaVuSans-73"/>
       <use x="270.214844" xlink:href="#DejaVuSans-57"/>
       <use x="369.091797" xlink:href="#DejaVuSans-6e"/>
       <use x="432.470703" xlink:href="#DejaVuSans-64"/>
       <use x="495.947266" xlink:href="#DejaVuSans-72"/>
      </g>
     </g>
    </g>
    <g id="xtick_5">
     <g id="line2d_9">
      <path clip-path="url(#p8eb40d3ede)" d="M 251.856294 255.511594 
L 251.856294 26.16 
" style="fill:none;stroke:#b0b0b0;stroke-dasharray:0.8,1.32;stroke-dashoffset:0;stroke-width:0.8;"/>
     </g>
     <g id="line2d_10">
      <g>
       <use style="stroke:#000000;stroke-width:0.8;" x="251.856294" xlink:href="#mf953726b19" y="255.511594"/>
      </g>
     </g>
     <g id="text_5">
      <!-- TheOnion -->
      <defs>
       <path d="M 54.890625 33.015625 
L 54.890625 0 
L 45.90625 0 
L 45.90625 32.71875 
Q 45.90625 40.484375 42.875 44.328125 
Q 39.84375 48.1875 33.796875 48.1875 
Q 26.515625 48.1875 22.3125 43.546875 
Q 18.109375 38.921875 18.109375 30.90625 
L 18.109375 0 
L 9.078125 0 
L 9.078125 75.984375 
L 18.109375 75.984375 
L 18.109375 46.1875 
Q 21.34375 51.125 25.703125 53.5625 
Q 30.078125 56 35.796875 56 
Q 45.21875 56 50.046875 50.171875 
Q 54.890625 44.34375 54.890625 33.015625 
z
" id="DejaVuSans-68"/>
      </defs>
      <g transform="translate(216.414776 301.855457)rotate(-45)scale(0.1 -0.1)">
       <use xlink:href="#DejaVuSans-54"/>
       <use x="61.083984" xlink:href="#DejaVuSans-68"/>
       <use x="124.462891" xlink:href="#DejaVuSans-65"/>
       <use x="185.986328" xlink:href="#DejaVuSans-4f"/>
       <use x="264.697266" xlink:href="#DejaVuSans-6e"/>
       <use x="328.076172" xlink:href="#DejaVuSans-69"/>
       <use x="355.859375" xlink:href="#DejaVuSans-6f"/>
       <use x="417.041016" xlink:href="#DejaVuSans-6e"/>
      </g>
     </g>
    </g>
    <g id="xtick_6">
     <g id="line2d_11">
      <path clip-path="url(#p8eb40d3ede)" d="M 294.768881 255.511594 
L 294.768881 26.16 
" style="fill:none;stroke:#b0b0b0;stroke-dasharray:0.8,1.32;stroke-dashoffset:0;stroke-width:0.8;"/>
     </g>
     <g id="line2d_12">
      <g>
       <use style="stroke:#000000;stroke-width:0.8;" x="294.768881" xlink:href="#mf953726b19" y="255.511594"/>
      </g>
     </g>
     <g id="text_6">
      <!-- FolksRtalking -->
      <defs>
       <path d="M 9.8125 72.90625 
L 51.703125 72.90625 
L 51.703125 64.59375 
L 19.671875 64.59375 
L 19.671875 43.109375 
L 48.578125 43.109375 
L 48.578125 34.8125 
L 19.671875 34.8125 
L 19.671875 0 
L 9.8125 0 
z
" id="DejaVuSans-46"/>
       <path d="M 9.078125 75.984375 
L 18.109375 75.984375 
L 18.109375 31.109375 
L 44.921875 54.6875 
L 56.390625 54.6875 
L 27.390625 29.109375 
L 57.625 0 
L 45.90625 0 
L 18.109375 26.703125 
L 18.109375 0 
L 9.078125 0 
z
" id="DejaVuSans-6b"/>
       <path d="M 45.40625 27.984375 
Q 45.40625 37.75 41.375 43.109375 
Q 37.359375 48.484375 30.078125 48.484375 
Q 22.859375 48.484375 18.828125 43.109375 
Q 14.796875 37.75 14.796875 27.984375 
Q 14.796875 18.265625 18.828125 12.890625 
Q 22.859375 7.515625 30.078125 7.515625 
Q 37.359375 7.515625 41.375 12.890625 
Q 45.40625 18.265625 45.40625 27.984375 
z
M 54.390625 6.78125 
Q 54.390625 -7.171875 48.1875 -13.984375 
Q 42 -20.796875 29.203125 -20.796875 
Q 24.46875 -20.796875 20.265625 -20.09375 
Q 16.0625 -19.390625 12.109375 -17.921875 
L 12.109375 -9.1875 
Q 16.0625 -11.328125 19.921875 -12.34375 
Q 23.78125 -13.375 27.78125 -13.375 
Q 36.625 -13.375 41.015625 -8.765625 
Q 45.40625 -4.15625 45.40625 5.171875 
L 45.40625 9.625 
Q 42.625 4.78125 38.28125 2.390625 
Q 33.9375 0 27.875 0 
Q 17.828125 0 11.671875 7.65625 
Q 5.515625 15.328125 5.515625 27.984375 
Q 5.515625 40.671875 11.671875 48.328125 
Q 17.828125 56 27.875 56 
Q 33.9375 56 38.28125 53.609375 
Q 42.625 51.21875 45.40625 46.390625 
L 45.40625 54.6875 
L 54.390625 54.6875 
z
" id="DejaVuSans-67"/>
      </defs>
      <g transform="translate(246.15308 315.029741)rotate(-45)scale(0.1 -0.1)">
       <use xlink:href="#DejaVuSans-46"/>
       <use x="57.472656" xlink:href="#DejaVuSans-6f"/>
       <use x="118.654297" xlink:href="#DejaVuSans-6c"/>
       <use x="146.4375" xlink:href="#DejaVuSans-6b"/>
       <use x="204.347656" xlink:href="#DejaVuSans-73"/>
       <use x="256.447266" xlink:href="#DejaVuSans-52"/>
       <use x="325.929688" xlink:href="#DejaVuSans-74"/>
       <use x="365.138672" xlink:href="#DejaVuSans-61"/>
       <use x="426.417969" xlink:href="#DejaVuSans-6c"/>
       <use x="454.201172" xlink:href="#DejaVuSans-6b"/>
       <use x="512.111328" xlink:href="#DejaVuSans-69"/>
       <use x="539.894531" xlink:href="#DejaVuSans-6e"/>
       <use x="603.273438" xlink:href="#DejaVuSans-67"/>
      </g>
     </g>
    </g>
    <g id="xtick_7">
     <g id="line2d_13">
      <path clip-path="url(#p8eb40d3ede)" d="M 337.681469 255.511594 
L 337.681469 26.16 
" style="fill:none;stroke:#b0b0b0;stroke-dasharray:0.8,1.32;stroke-dashoffset:0;stroke-width:0.8;"/>
     </g>
     <g id="line2d_14">
      <g>
       <use style="stroke:#000000;stroke-width:0.8;" x="337.681469" xlink:href="#mf953726b19" y="255.511594"/>
      </g>
     </g>
     <g id="text_7">
      <!-- TheNewslo -->
      <g transform="translate(297.661434 306.433974)rotate(-45)scale(0.1 -0.1)">
       <use xlink:href="#DejaVuSans-54"/>
       <use x="61.083984" xlink:href="#DejaVuSans-68"/>
       <use x="124.462891" xlink:href="#DejaVuSans-65"/>
       <use x="185.986328" xlink:href="#DejaVuSans-4e"/>
       <use x="260.791016" xlink:href="#DejaVuSans-65"/>
       <use x="322.314453" xlink:href="#DejaVuSans-77"/>
       <use x="404.101562" xlink:href="#DejaVuSans-73"/>
       <use x="456.201172" xlink:href="#DejaVuSans-6c"/>
       <use x="483.984375" xlink:href="#DejaVuSans-6f"/>
      </g>
     </g>
    </g>
    <g id="xtick_8">
     <g id="line2d_15">
      <path clip-path="url(#p8eb40d3ede)" d="M 380.594056 255.511594 
L 380.594056 26.16 
" style="fill:none;stroke:#b0b0b0;stroke-dasharray:0.8,1.32;stroke-dashoffset:0;stroke-width:0.8;"/>
     </g>
     <g id="line2d_16">
      <g>
       <use style="stroke:#000000;stroke-width:0.8;" x="380.594056" xlink:href="#mf953726b19" y="255.511594"/>
      </g>
     </g>
     <g id="text_8">
      <!-- BurrardStreetJ -->
      <defs>
       <path d="M 19.671875 34.8125 
L 19.671875 8.109375 
L 35.5 8.109375 
Q 43.453125 8.109375 47.28125 11.40625 
Q 51.125 14.703125 51.125 21.484375 
Q 51.125 28.328125 47.28125 31.5625 
Q 43.453125 34.8125 35.5 34.8125 
z
M 19.671875 64.796875 
L 19.671875 42.828125 
L 34.28125 42.828125 
Q 41.5 42.828125 45.03125 45.53125 
Q 48.578125 48.25 48.578125 53.8125 
Q 48.578125 59.328125 45.03125 62.0625 
Q 41.5 64.796875 34.28125 64.796875 
z
M 9.8125 72.90625 
L 35.015625 72.90625 
Q 46.296875 72.90625 52.390625 68.21875 
Q 58.5 63.53125 58.5 54.890625 
Q 58.5 48.1875 55.375 44.234375 
Q 52.25 40.28125 46.1875 39.3125 
Q 53.46875 37.75 57.5 32.78125 
Q 61.53125 27.828125 61.53125 20.40625 
Q 61.53125 10.640625 54.890625 5.3125 
Q 48.25 0 35.984375 0 
L 9.8125 0 
z
" id="DejaVuSans-42"/>
       <path d="M 53.515625 70.515625 
L 53.515625 60.890625 
Q 47.90625 63.578125 42.921875 64.890625 
Q 37.9375 66.21875 33.296875 66.21875 
Q 25.25 66.21875 20.875 63.09375 
Q 16.5 59.96875 16.5 54.203125 
Q 16.5 49.359375 19.40625 46.890625 
Q 22.3125 44.4375 30.421875 42.921875 
L 36.375 41.703125 
Q 47.40625 39.59375 52.65625 34.296875 
Q 57.90625 29 57.90625 20.125 
Q 57.90625 9.515625 50.796875 4.046875 
Q 43.703125 -1.421875 29.984375 -1.421875 
Q 24.8125 -1.421875 18.96875 -0.25 
Q 13.140625 0.921875 6.890625 3.21875 
L 6.890625 13.375 
Q 12.890625 10.015625 18.65625 8.296875 
Q 24.421875 6.59375 29.984375 6.59375 
Q 38.421875 6.59375 43.015625 9.90625 
Q 47.609375 13.234375 47.609375 19.390625 
Q 47.609375 24.75 44.3125 27.78125 
Q 41.015625 30.8125 33.5 32.328125 
L 27.484375 33.5 
Q 16.453125 35.6875 11.515625 40.375 
Q 6.59375 45.0625 6.59375 53.421875 
Q 6.59375 63.09375 13.40625 68.65625 
Q 20.21875 74.21875 32.171875 74.21875 
Q 37.3125 74.21875 42.625 73.28125 
Q 47.953125 72.359375 53.515625 70.515625 
z
" id="DejaVuSans-53"/>
      </defs>
      <g transform="translate(328.52448 318.483515)rotate(-45)scale(0.1 -0.1)">
       <use xlink:href="#DejaVuSans-42"/>
       <use x="68.603516" xlink:href="#DejaVuSans-75"/>
       <use x="131.982422" xlink:href="#DejaVuSans-72"/>
       <use x="173.080078" xlink:href="#DejaVuSans-72"/>
       <use x="214.193359" xlink:href="#DejaVuSans-61"/>
       <use x="275.472656" xlink:href="#DejaVuSans-72"/>
       <use x="316.570312" xlink:href="#DejaVuSans-64"/>
       <use x="380.046875" xlink:href="#DejaVuSans-53"/>
       <use x="443.523438" xlink:href="#DejaVuSans-74"/>
       <use x="482.732422" xlink:href="#DejaVuSans-72"/>
       <use x="523.814453" xlink:href="#DejaVuSans-65"/>
       <use x="585.337891" xlink:href="#DejaVuSans-65"/>
       <use x="646.861328" xlink:href="#DejaVuSans-74"/>
       <use x="686.070312" xlink:href="#DejaVuSans-4a"/>
      </g>
     </g>
    </g>
    <g id="text_9">
     <!-- Όνομα λογαριασμού -->
     <defs>
      <path d="M 13.03125 79.984375 
L 22.75 79.984375 
L 6.84375 61.625 
L -0.640625 61.625 
z
M 41.40625 66.21875 
Q 30.65625 66.21875 24.328125 58.203125 
Q 18.015625 50.203125 18.015625 36.375 
Q 18.015625 22.609375 24.328125 14.59375 
Q 30.65625 6.59375 41.40625 6.59375 
Q 52.140625 6.59375 58.421875 14.59375 
Q 64.703125 22.609375 64.703125 36.375 
Q 64.703125 50.203125 58.421875 58.203125 
Q 52.140625 66.21875 41.40625 66.21875 
z
M 41.40625 74.21875 
Q 56.734375 74.21875 65.90625 63.9375 
Q 75.09375 53.65625 75.09375 36.375 
Q 75.09375 19.140625 65.90625 8.859375 
Q 56.734375 -1.421875 41.40625 -1.421875 
Q 26.03125 -1.421875 16.8125 8.828125 
Q 7.609375 19.09375 7.609375 36.375 
Q 7.609375 53.65625 16.8125 63.9375 
Q 26.03125 74.21875 41.40625 74.21875 
z
" id="DejaVuSans-38c"/>
      <path d="M 20.3125 0 
L 3.609375 54.6875 
L 13.28125 54.6875 
L 27.390625 8.796875 
Q 33.25 14.84375 38.140625 23.25 
Q 41.84375 29.546875 42.046875 35.015625 
Q 42.140625 37.59375 40.96875 42.484375 
Q 39.59375 48.296875 34.421875 54.6875 
L 43.5 54.6875 
L 43.5 54.6875 
Q 46.875 50.34375 49.125 44.28125 
Q 51.171875 38.71875 51.171875 34.90625 
Q 51.171875 25.34375 44.53125 16.796875 
Q 35.890625 5.671875 29.890625 0 
z
" id="DejaVuSans-3bd"/>
      <path d="M 30.609375 48.390625 
Q 23.390625 48.390625 19.1875 42.75 
Q 14.984375 37.109375 14.984375 27.296875 
Q 14.984375 17.484375 19.15625 11.84375 
Q 23.34375 6.203125 30.609375 6.203125 
Q 37.796875 6.203125 41.984375 11.859375 
Q 46.1875 17.53125 46.1875 27.296875 
Q 46.1875 37.015625 41.984375 42.703125 
Q 37.796875 48.390625 30.609375 48.390625 
z
M 30.609375 56 
Q 42.328125 56 49.015625 48.375 
Q 55.71875 40.765625 55.71875 27.296875 
Q 55.71875 13.875 49.015625 6.21875 
Q 42.328125 -1.421875 30.609375 -1.421875 
Q 18.84375 -1.421875 12.171875 6.21875 
Q 5.515625 13.875 5.515625 27.296875 
Q 5.515625 40.765625 12.171875 48.375 
Q 18.84375 56 30.609375 56 
z
" id="DejaVuSans-3bf"/>
      <path d="M 8.5 -20.796875 
L 8.5 54.6875 
L 17.484375 54.6875 
L 17.484375 20.703125 
Q 17.484375 13.625 20.84375 10 
Q 24.21875 6.390625 30.8125 6.390625 
Q 38.03125 6.390625 41.671875 10.484375 
Q 45.3125 14.59375 45.3125 22.796875 
L 45.3125 54.6875 
L 54.296875 54.6875 
L 54.296875 12.59375 
Q 54.296875 9.671875 55.140625 8.28125 
Q 56 6.890625 57.8125 6.890625 
Q 58.25 6.890625 59.03125 7.15625 
Q 59.8125 7.421875 61.1875 8.015625 
L 61.1875 0.78125 
Q 59.1875 -0.34375 57.390625 -0.875 
Q 55.609375 -1.421875 53.90625 -1.421875 
Q 50.53125 -1.421875 48.53125 0.484375 
Q 46.53125 2.390625 45.796875 6.296875 
Q 43.359375 2.4375 39.8125 0.5 
Q 36.28125 -1.421875 31.5 -1.421875 
Q 26.515625 -1.421875 23.015625 0.484375 
Q 19.53125 2.390625 17.484375 6.203125 
L 17.484375 -20.796875 
z
" id="DejaVuSans-3bc"/>
      <path d="M 41.3125 25.4375 
L 39.15625 36.71875 
Q 36.96875 48.296875 28.265625 48.296875 
Q 21.734375 48.296875 18.75 42.921875 
Q 14.984375 36.1875 14.984375 27.296875 
Q 14.984375 16.546875 18.65625 11.421875 
Q 22.359375 6.203125 28.265625 6.203125 
Q 34.8125 6.203125 38.328125 16.609375 
z
M 46.34375 40.375 
L 51.171875 54.6875 
L 59.1875 54.6875 
L 49.171875 25.046875 
L 51.125 14.359375 
Q 51.5625 11.96875 53.265625 9.96875 
Q 55.28125 7.625 56.84375 7.625 
L 61.140625 7.625 
L 61.140625 0 
L 55.765625 0 
Q 51.171875 0 47.078125 4.109375 
Q 45.0625 6.15625 44.234375 10.453125 
Q 42 5.03125 37.40625 0.78125 
Q 35.25 -1.21875 28.265625 -1.21875 
Q 16.796875 -1.21875 11.234375 6.203125 
Q 5.515625 13.875 5.515625 27.296875 
Q 5.515625 41.65625 11.71875 48.390625 
Q 18.609375 55.90625 28.265625 55.90625 
Q 43.453125 55.90625 46.34375 40.375 
z
" id="DejaVuSans-3b1"/>
      <path id="DejaVuSans-20"/>
      <path d="M 30.953125 67.4375 
L 56.203125 0 
L 46.6875 0 
L 31.34375 40.4375 
L 12.5 0 
L 2.984375 0 
L 26.953125 52.4375 
L 23.34375 62.109375 
Q 21.046875 68.265625 15.828125 68.265625 
L 11.140625 68.265625 
L 11.140625 75.984375 
L 16.84375 75.875 
Q 27.875 75.734375 30.953125 67.4375 
z
" id="DejaVuSans-3bb"/>
      <path d="M 17.625 46.09375 
L 29.59375 12.3125 
L 46.6875 54.6875 
L 56.203125 54.6875 
L 34.078125 0 
L 34.078125 -20.796875 
L 25.09375 -20.796875 
L 25.09375 0 
L 10.75 40.828125 
Q 8.59375 46.96875 3.953125 46.96875 
L 1.5625 46.96875 
L 1.5625 54.6875 
L 4.984375 54.6875 
Q 14.59375 54.6875 17.625 46.09375 
z
" id="DejaVuSans-3b3"/>
      <path d="M 13.484375 44.921875 
Q 16.453125 49.90625 23.828125 54.296875 
Q 26.703125 56 35.59375 56 
Q 45.5625 56 51.78125 48.09375 
Q 58.015625 40.1875 58.015625 27.296875 
Q 58.015625 14.40625 51.78125 6.484375 
Q 45.5625 -1.421875 35.59375 -1.421875 
Q 29.59375 -1.421875 25.265625 0.953125 
Q 20.953125 3.328125 18.109375 8.203125 
L 18.109375 -20.796875 
L 9.078125 -20.796875 
L 9.078125 26.8125 
Q 9.078125 38.09375 13.484375 44.921875 
z
M 48.6875 27.296875 
Q 48.6875 37.203125 44.609375 42.84375 
Q 40.53125 48.484375 33.40625 48.484375 
Q 26.265625 48.484375 22.1875 42.84375 
Q 18.109375 37.203125 18.109375 27.296875 
Q 18.109375 17.390625 22.1875 11.75 
Q 26.265625 6.109375 33.40625 6.109375 
Q 40.53125 6.109375 44.609375 11.75 
Q 48.6875 17.390625 48.6875 27.296875 
z
" id="DejaVuSans-3c1"/>
      <path d="M 17.328125 54.6875 
L 17.328125 19.28125 
Q 17.328125 12.203125 19 9.96875 
Q 20.75 7.625 26.03125 7.625 
L 30.375 7.625 
L 30.375 0 
L 24.953125 0 
Q 16.15625 0 12.15625 4.6875 
Q 8.15625 9.46875 8.15625 19.828125 
L 8.109375 54.6875 
z
" id="DejaVuSans-3b9"/>
      <path d="M 30.609375 47.5625 
Q 23.1875 47.5625 19.1875 42.1875 
Q 14.984375 36.578125 14.984375 27.296875 
Q 14.984375 17.484375 19.15625 11.84375 
Q 23.34375 6.203125 30.609375 6.203125 
Q 37.796875 6.203125 41.984375 11.859375 
Q 46.1875 17.53125 46.1875 27.296875 
Q 46.1875 36.234375 42 42.1875 
Q 38.140625 47.5625 30.609375 47.5625 
z
M 30.609375 54.6875 
L 60.453125 54.6875 
L 60.453125 45.703125 
L 50.390625 45.703125 
Q 55.71875 38.09375 55.71875 27.296875 
Q 55.71875 13.875 49.03125 6.25 
Q 42.328125 -1.421875 30.609375 -1.421875 
Q 18.84375 -1.421875 12.203125 6.25 
Q 5.515625 13.875 5.515625 27.296875 
Q 5.515625 40.828125 12.203125 48.390625 
Q 17.71875 54.6875 30.609375 54.6875 
z
" id="DejaVuSans-3c3"/>
      <path d="M 33.40625 79.984375 
L 43.125 79.984375 
L 27.21875 61.625 
L 19.734375 61.625 
z
M 16.5 54.6875 
L 16.5 19.28125 
Q 16.5 12.703125 18.953125 9.578125 
Q 21.625 6.203125 26.859375 6.203125 
Q 34.1875 6.203125 39.3125 16.359375 
Q 42.1875 22.125 42.921875 31.25 
Q 43.3125 36.234375 41.84375 42.484375 
Q 40.484375 48.296875 35.296875 54.6875 
L 44.390625 54.6875 
L 44.390625 54.6875 
Q 47.796875 50.296875 50 44.28125 
Q 52.046875 38.671875 52.046875 31.15625 
Q 52.046875 18.796875 45.796875 9.671875 
Q 38.1875 -1.46875 25.78125 -1.421875 
Q 17.046875 -1.421875 12.109375 4.4375 
Q 7.328125 10.203125 7.328125 19.828125 
L 7.28125 54.6875 
z
" id="DejaVuSans-3cd"/>
     </defs>
     <g transform="translate(179.679688 331.952514)scale(0.1 -0.1)">
      <use xlink:href="#DejaVuSans-38c"/>
      <use x="81.25" xlink:href="#DejaVuSans-3bd"/>
      <use x="137.109375" xlink:href="#DejaVuSans-3bf"/>
      <use x="198.291016" xlink:href="#DejaVuSans-3bc"/>
      <use x="261.914062" xlink:href="#DejaVuSans-3b1"/>
      <use x="327.832031" xlink:href="#DejaVuSans-20"/>
      <use x="359.619141" xlink:href="#DejaVuSans-3bb"/>
      <use x="418.798828" xlink:href="#DejaVuSans-3bf"/>
      <use x="479.980469" xlink:href="#DejaVuSans-3b3"/>
      <use x="539.160156" xlink:href="#DejaVuSans-3b1"/>
      <use x="605.078125" xlink:href="#DejaVuSans-3c1"/>
      <use x="668.554688" xlink:href="#DejaVuSans-3b9"/>
      <use x="702.392578" xlink:href="#DejaVuSans-3b1"/>
      <use x="768.310547" xlink:href="#DejaVuSans-3c3"/>
      <use x="831.689453" xlink:href="#DejaVuSans-3bc"/>
      <use x="895.3125" xlink:href="#DejaVuSans-3bf"/>
      <use x="956.494141" xlink:href="#DejaVuSans-3cd"/>
     </g>
    </g>
   </g>
   <g id="matplotlib.axis_2">
    <g id="ytick_1">
     <g id="line2d_17">
      <path clip-path="url(#p8eb40d3ede)" d="M 46.305 255.511594 
L 414.495 255.511594 
" style="fill:none;stroke:#b0b0b0;stroke-dasharray:0.8,1.32;stroke-dashoffset:0;stroke-width:0.8;"/>
     </g>
     <g id="line2d_18">
      <defs>
       <path d="M 0 0 
L -3.5 0 
" id="m3473b28928" style="stroke:#000000;stroke-width:0.8;"/>
      </defs>
      <g>
       <use style="stroke:#000000;stroke-width:0.8;" x="46.305" xlink:href="#m3473b28928" y="255.511594"/>
      </g>
     </g>
     <g id="text_10">
      <!-- 0 -->
      <defs>
       <path d="M 31.78125 66.40625 
Q 24.171875 66.40625 20.328125 58.90625 
Q 16.5 51.421875 16.5 36.375 
Q 16.5 21.390625 20.328125 13.890625 
Q 24.171875 6.390625 31.78125 6.390625 
Q 39.453125 6.390625 43.28125 13.890625 
Q 47.125 21.390625 47.125 36.375 
Q 47.125 51.421875 43.28125 58.90625 
Q 39.453125 66.40625 31.78125 66.40625 
z
M 31.78125 74.21875 
Q 44.046875 74.21875 50.515625 64.515625 
Q 56.984375 54.828125 56.984375 36.375 
Q 56.984375 17.96875 50.515625 8.265625 
Q 44.046875 -1.421875 31.78125 -1.421875 
Q 19.53125 -1.421875 13.0625 8.265625 
Q 6.59375 17.96875 6.59375 36.375 
Q 6.59375 54.828125 13.0625 64.515625 
Q 19.53125 74.21875 31.78125 74.21875 
z
" id="DejaVuSans-30"/>
      </defs>
      <g transform="translate(32.9425 259.310813)scale(0.1 -0.1)">
       <use xlink:href="#DejaVuSans-30"/>
      </g>
     </g>
    </g>
    <g id="ytick_2">
     <g id="line2d_19">
      <path clip-path="url(#p8eb40d3ede)" d="M 46.305 217.851234 
L 414.495 217.851234 
" style="fill:none;stroke:#b0b0b0;stroke-dasharray:0.8,1.32;stroke-dashoffset:0;stroke-width:0.8;"/>
     </g>
     <g id="line2d_20">
      <g>
       <use style="stroke:#000000;stroke-width:0.8;" x="46.305" xlink:href="#m3473b28928" y="217.851234"/>
      </g>
     </g>
     <g id="text_11">
      <!-- 10 -->
      <defs>
       <path d="M 12.40625 8.296875 
L 28.515625 8.296875 
L 28.515625 63.921875 
L 10.984375 60.40625 
L 10.984375 69.390625 
L 28.421875 72.90625 
L 38.28125 72.90625 
L 38.28125 8.296875 
L 54.390625 8.296875 
L 54.390625 0 
L 12.40625 0 
z
" id="DejaVuSans-31"/>
      </defs>
      <g transform="translate(26.58 221.650453)scale(0.1 -0.1)">
       <use xlink:href="#DejaVuSans-31"/>
       <use x="63.623047" xlink:href="#DejaVuSans-30"/>
      </g>
     </g>
    </g>
    <g id="ytick_3">
     <g id="line2d_21">
      <path clip-path="url(#p8eb40d3ede)" d="M 46.305 180.190874 
L 414.495 180.190874 
" style="fill:none;stroke:#b0b0b0;stroke-dasharray:0.8,1.32;stroke-dashoffset:0;stroke-width:0.8;"/>
     </g>
     <g id="line2d_22">
      <g>
       <use style="stroke:#000000;stroke-width:0.8;" x="46.305" xlink:href="#m3473b28928" y="180.190874"/>
      </g>
     </g>
     <g id="text_12">
      <!-- 20 -->
      <defs>
       <path d="M 19.1875 8.296875 
L 53.609375 8.296875 
L 53.609375 0 
L 7.328125 0 
L 7.328125 8.296875 
Q 12.9375 14.109375 22.625 23.890625 
Q 32.328125 33.6875 34.8125 36.53125 
Q 39.546875 41.84375 41.421875 45.53125 
Q 43.3125 49.21875 43.3125 52.78125 
Q 43.3125 58.59375 39.234375 62.25 
Q 35.15625 65.921875 28.609375 65.921875 
Q 23.96875 65.921875 18.8125 64.3125 
Q 13.671875 62.703125 7.8125 59.421875 
L 7.8125 69.390625 
Q 13.765625 71.78125 18.9375 73 
Q 24.125 74.21875 28.421875 74.21875 
Q 39.75 74.21875 46.484375 68.546875 
Q 53.21875 62.890625 53.21875 53.421875 
Q 53.21875 48.921875 51.53125 44.890625 
Q 49.859375 40.875 45.40625 35.40625 
Q 44.1875 33.984375 37.640625 27.21875 
Q 31.109375 20.453125 19.1875 8.296875 
z
" id="DejaVuSans-32"/>
      </defs>
      <g transform="translate(26.58 183.990092)scale(0.1 -0.1)">
       <use xlink:href="#DejaVuSans-32"/>
       <use x="63.623047" xlink:href="#DejaVuSans-30"/>
      </g>
     </g>
    </g>
    <g id="ytick_4">
     <g id="line2d_23">
      <path clip-path="url(#p8eb40d3ede)" d="M 46.305 142.530513 
L 414.495 142.530513 
" style="fill:none;stroke:#b0b0b0;stroke-dasharray:0.8,1.32;stroke-dashoffset:0;stroke-width:0.8;"/>
     </g>
     <g id="line2d_24">
      <g>
       <use style="stroke:#000000;stroke-width:0.8;" x="46.305" xlink:href="#m3473b28928" y="142.530513"/>
      </g>
     </g>
     <g id="text_13">
      <!-- 30 -->
      <defs>
       <path d="M 40.578125 39.3125 
Q 47.65625 37.796875 51.625 33 
Q 55.609375 28.21875 55.609375 21.1875 
Q 55.609375 10.40625 48.1875 4.484375 
Q 40.765625 -1.421875 27.09375 -1.421875 
Q 22.515625 -1.421875 17.65625 -0.515625 
Q 12.796875 0.390625 7.625 2.203125 
L 7.625 11.71875 
Q 11.71875 9.328125 16.59375 8.109375 
Q 21.484375 6.890625 26.8125 6.890625 
Q 36.078125 6.890625 40.9375 10.546875 
Q 45.796875 14.203125 45.796875 21.1875 
Q 45.796875 27.640625 41.28125 31.265625 
Q 36.765625 34.90625 28.71875 34.90625 
L 20.21875 34.90625 
L 20.21875 43.015625 
L 29.109375 43.015625 
Q 36.375 43.015625 40.234375 45.921875 
Q 44.09375 48.828125 44.09375 54.296875 
Q 44.09375 59.90625 40.109375 62.90625 
Q 36.140625 65.921875 28.71875 65.921875 
Q 24.65625 65.921875 20.015625 65.03125 
Q 15.375 64.15625 9.8125 62.3125 
L 9.8125 71.09375 
Q 15.4375 72.65625 20.34375 73.4375 
Q 25.25 74.21875 29.59375 74.21875 
Q 40.828125 74.21875 47.359375 69.109375 
Q 53.90625 64.015625 53.90625 55.328125 
Q 53.90625 49.265625 50.4375 45.09375 
Q 46.96875 40.921875 40.578125 39.3125 
z
" id="DejaVuSans-33"/>
      </defs>
      <g transform="translate(26.58 146.329732)scale(0.1 -0.1)">
       <use xlink:href="#DejaVuSans-33"/>
       <use x="63.623047" xlink:href="#DejaVuSans-30"/>
      </g>
     </g>
    </g>
    <g id="ytick_5">
     <g id="line2d_25">
      <path clip-path="url(#p8eb40d3ede)" d="M 46.305 104.870153 
L 414.495 104.870153 
" style="fill:none;stroke:#b0b0b0;stroke-dasharray:0.8,1.32;stroke-dashoffset:0;stroke-width:0.8;"/>
     </g>
     <g id="line2d_26">
      <g>
       <use style="stroke:#000000;stroke-width:0.8;" x="46.305" xlink:href="#m3473b28928" y="104.870153"/>
      </g>
     </g>
     <g id="text_14">
      <!-- 40 -->
      <defs>
       <path d="M 37.796875 64.3125 
L 12.890625 25.390625 
L 37.796875 25.390625 
z
M 35.203125 72.90625 
L 47.609375 72.90625 
L 47.609375 25.390625 
L 58.015625 25.390625 
L 58.015625 17.1875 
L 47.609375 17.1875 
L 47.609375 0 
L 37.796875 0 
L 37.796875 17.1875 
L 4.890625 17.1875 
L 4.890625 26.703125 
z
" id="DejaVuSans-34"/>
      </defs>
      <g transform="translate(26.58 108.669372)scale(0.1 -0.1)">
       <use xlink:href="#DejaVuSans-34"/>
       <use x="63.623047" xlink:href="#DejaVuSans-30"/>
      </g>
     </g>
    </g>
    <g id="ytick_6">
     <g id="line2d_27">
      <path clip-path="url(#p8eb40d3ede)" d="M 46.305 67.209793 
L 414.495 67.209793 
" style="fill:none;stroke:#b0b0b0;stroke-dasharray:0.8,1.32;stroke-dashoffset:0;stroke-width:0.8;"/>
     </g>
     <g id="line2d_28">
      <g>
       <use style="stroke:#000000;stroke-width:0.8;" x="46.305" xlink:href="#m3473b28928" y="67.209793"/>
      </g>
     </g>
     <g id="text_15">
      <!-- 50 -->
      <defs>
       <path d="M 10.796875 72.90625 
L 49.515625 72.90625 
L 49.515625 64.59375 
L 19.828125 64.59375 
L 19.828125 46.734375 
Q 21.96875 47.46875 24.109375 47.828125 
Q 26.265625 48.1875 28.421875 48.1875 
Q 40.625 48.1875 47.75 41.5 
Q 54.890625 34.8125 54.890625 23.390625 
Q 54.890625 11.625 47.5625 5.09375 
Q 40.234375 -1.421875 26.90625 -1.421875 
Q 22.3125 -1.421875 17.546875 -0.640625 
Q 12.796875 0.140625 7.71875 1.703125 
L 7.71875 11.625 
Q 12.109375 9.234375 16.796875 8.0625 
Q 21.484375 6.890625 26.703125 6.890625 
Q 35.15625 6.890625 40.078125 11.328125 
Q 45.015625 15.765625 45.015625 23.390625 
Q 45.015625 31 40.078125 35.4375 
Q 35.15625 39.890625 26.703125 39.890625 
Q 22.75 39.890625 18.8125 39.015625 
Q 14.890625 38.140625 10.796875 36.28125 
z
" id="DejaVuSans-35"/>
      </defs>
      <g transform="translate(26.58 71.009011)scale(0.1 -0.1)">
       <use xlink:href="#DejaVuSans-35"/>
       <use x="63.623047" xlink:href="#DejaVuSans-30"/>
      </g>
     </g>
    </g>
    <g id="ytick_7">
     <g id="line2d_29">
      <path clip-path="url(#p8eb40d3ede)" d="M 46.305 29.549432 
L 414.495 29.549432 
" style="fill:none;stroke:#b0b0b0;stroke-dasharray:0.8,1.32;stroke-dashoffset:0;stroke-width:0.8;"/>
     </g>
     <g id="line2d_30">
      <g>
       <use style="stroke:#000000;stroke-width:0.8;" x="46.305" xlink:href="#m3473b28928" y="29.549432"/>
      </g>
     </g>
     <g id="text_16">
      <!-- 60 -->
      <defs>
       <path d="M 33.015625 40.375 
Q 26.375 40.375 22.484375 35.828125 
Q 18.609375 31.296875 18.609375 23.390625 
Q 18.609375 15.53125 22.484375 10.953125 
Q 26.375 6.390625 33.015625 6.390625 
Q 39.65625 6.390625 43.53125 10.953125 
Q 47.40625 15.53125 47.40625 23.390625 
Q 47.40625 31.296875 43.53125 35.828125 
Q 39.65625 40.375 33.015625 40.375 
z
M 52.59375 71.296875 
L 52.59375 62.3125 
Q 48.875 64.0625 45.09375 64.984375 
Q 41.3125 65.921875 37.59375 65.921875 
Q 27.828125 65.921875 22.671875 59.328125 
Q 17.53125 52.734375 16.796875 39.40625 
Q 19.671875 43.65625 24.015625 45.921875 
Q 28.375 48.1875 33.59375 48.1875 
Q 44.578125 48.1875 50.953125 41.515625 
Q 57.328125 34.859375 57.328125 23.390625 
Q 57.328125 12.15625 50.6875 5.359375 
Q 44.046875 -1.421875 33.015625 -1.421875 
Q 20.359375 -1.421875 13.671875 8.265625 
Q 6.984375 17.96875 6.984375 36.375 
Q 6.984375 53.65625 15.1875 63.9375 
Q 23.390625 74.21875 37.203125 74.21875 
Q 40.921875 74.21875 44.703125 73.484375 
Q 48.484375 72.75 52.59375 71.296875 
z
" id="DejaVuSans-36"/>
      </defs>
      <g transform="translate(26.58 33.348651)scale(0.1 -0.1)">
       <use xlink:href="#DejaVuSans-36"/>
       <use x="63.623047" xlink:href="#DejaVuSans-30"/>
      </g>
     </g>
    </g>
    <g id="text_17">
     <!-- Tweets -->
     <g transform="translate(20.500313 158.684235)rotate(-90)scale(0.1 -0.1)">
      <use xlink:href="#DejaVuSans-54"/>
      <use x="60.833984" xlink:href="#DejaVuSans-77"/>
      <use x="142.621094" xlink:href="#DejaVuSans-65"/>
      <use x="204.144531" xlink:href="#DejaVuSans-65"/>
      <use x="265.667969" xlink:href="#DejaVuSans-74"/>
      <use x="304.876953" xlink:href="#DejaVuSans-73"/>
     </g>
    </g>
   </g>
   <g id="patch_11">
    <path d="M 46.305 255.511594 
L 46.305 26.16 
" style="fill:none;stroke:#000000;stroke-linecap:square;stroke-linejoin:miter;stroke-width:0.8;"/>
   </g>
   <g id="patch_12">
    <path d="M 414.495 255.511594 
L 414.495 26.16 
" style="fill:none;stroke:#000000;stroke-linecap:square;stroke-linejoin:miter;stroke-width:0.8;"/>
   </g>
   <g id="patch_13">
    <path d="M 46.305 255.511594 
L 414.495 255.511594 
" style="fill:none;stroke:#000000;stroke-linecap:square;stroke-linejoin:miter;stroke-width:0.8;"/>
   </g>
   <g id="patch_14">
    <path d="M 46.305 26.16 
L 414.495 26.16 
" style="fill:none;stroke:#000000;stroke-linecap:square;stroke-linejoin:miter;stroke-width:0.8;"/>
   </g>
   <g id="text_18">
    <!-- Αριθμός των tweets που συλλέχθηκαν από μη έμπιστους λογαριασμούς -->
    <defs>
     <path d="M 34.1875 63.1875 
L 20.796875 26.90625 
L 47.609375 26.90625 
z
M 28.609375 72.90625 
L 39.796875 72.90625 
L 67.578125 0 
L 57.328125 0 
L 50.6875 18.703125 
L 17.828125 18.703125 
L 11.1875 0 
L 0.78125 0 
z
" id="DejaVuSans-391"/>
     <path d="M 46.140625 34.671875 
L 15.046875 34.671875 
Q 15.765625 20.0625 19.140625 13.875 
Q 23.34375 6.25 30.609375 6.25 
Q 37.9375 6.25 42 13.921875 
Q 45.5625 20.65625 46.140625 34.671875 
z
M 46 42.96875 
Q 44.625 56.84375 42 61.71875 
Q 37.796875 69.4375 30.609375 69.4375 
Q 23.140625 69.4375 19.1875 61.8125 
Q 16.0625 55.671875 15.140625 42.96875 
z
M 30.609375 76.765625 
Q 42.328125 76.765625 49.03125 66.40625 
Q 55.71875 56.109375 55.71875 37.84375 
Q 55.71875 19.625 49.03125 9.28125 
Q 42.328125 -1.125 30.609375 -1.125 
Q 18.84375 -1.125 12.203125 9.28125 
Q 5.515625 19.625 5.515625 37.84375 
Q 5.515625 56.109375 12.203125 66.40625 
Q 18.84375 76.765625 30.609375 76.765625 
z
" id="DejaVuSans-3b8"/>
     <path d="M 37.90625 79.984375 
L 47.625 79.984375 
L 31.71875 61.625 
L 24.234375 61.625 
z
M 30.609375 48.390625 
Q 23.390625 48.390625 19.1875 42.75 
Q 14.984375 37.109375 14.984375 27.296875 
Q 14.984375 17.484375 19.15625 11.84375 
Q 23.34375 6.203125 30.609375 6.203125 
Q 37.796875 6.203125 41.984375 11.859375 
Q 46.1875 17.53125 46.1875 27.296875 
Q 46.1875 37.015625 41.984375 42.703125 
Q 37.796875 48.390625 30.609375 48.390625 
z
M 30.609375 56 
Q 42.328125 56 49.015625 48.375 
Q 55.71875 40.765625 55.71875 27.296875 
Q 55.71875 13.875 49.015625 6.21875 
Q 42.328125 -1.421875 30.609375 -1.421875 
Q 18.84375 -1.421875 12.171875 6.21875 
Q 5.515625 13.875 5.515625 27.296875 
Q 5.515625 40.765625 12.171875 48.375 
Q 18.84375 56 30.609375 56 
z
" id="DejaVuSans-3cc"/>
     <path d="M 33.203125 -1.421875 
Q 20.0625 -1.421875 12.78125 6.34375 
Q 5.515625 14.109375 5.515625 27.296875 
Q 5.515625 40.671875 12.859375 48.328125 
Q 20.21875 56 33.015625 56 
Q 37.15625 56 41.109375 55.140625 
Q 45.0625 54.296875 48.78125 52.59375 
L 48.78125 44.1875 
Q 44.96875 46.296875 41.140625 47.34375 
Q 37.3125 48.390625 33.40625 48.390625 
Q 24.65625 48.390625 19.8125 42.84375 
Q 14.984375 37.3125 14.984375 27.296875 
Q 14.984375 17.28125 19.8125 11.734375 
Q 24.65625 6.203125 33.203125 6.203125 
Q 39.59375 6.203125 43.5 2.484375 
Q 47.609375 -1.375 47.609375 -7.234375 
Q 47.609375 -12.84375 44 -16.75 
Q 40.09375 -21 32.125 -21 
Q 32.125 -17.328125 32.125 -13.625 
Q 35.5 -13.875 37.546875 -11.71875 
Q 39.109375 -10.015625 39.109375 -8.203125 
Q 39.109375 -5.609375 37.546875 -3.46875 
Q 36.03125 -1.421875 33.203125 -1.421875 
z
" id="DejaVuSans-3c2"/>
     <path d="M 36.234375 9.96875 
Q 37.984375 7.625 43.265625 7.625 
L 47.609375 7.625 
L 47.609375 0 
L 42.1875 0 
Q 33.40625 0 29.390625 4.6875 
Q 25.390625 9.46875 25.390625 19.828125 
L 25.390625 45.703125 
L 4.890625 45.703125 
L 4.890625 54.6875 
L 55.328125 54.6875 
L 55.328125 45.703125 
L 34.578125 45.703125 
L 34.578125 19.28125 
Q 34.578125 12.203125 36.234375 9.96875 
z
" id="DejaVuSans-3c4"/>
     <path d="M 26.859375 -1.421875 
Q 6.59375 -1.421875 6.59375 27.59375 
Q 6.59375 39.0625 14.15625 54.6875 
L 23.828125 54.6875 
Q 16.84375 39.0625 16.84375 27.34375 
Q 16.84375 6.203125 27.6875 6.203125 
Q 37.59375 6.203125 37.59375 32.46875 
L 45.90625 32.46875 
Q 45.90625 6.203125 55.8125 6.203125 
Q 66.65625 6.203125 66.65625 27.34375 
Q 66.65625 39.0625 59.671875 54.6875 
L 69.34375 54.6875 
Q 76.90625 39.0625 76.90625 27.59375 
Q 76.90625 -1.421875 56.640625 -1.421875 
Q 43.359375 -1.421875 41.75 13.1875 
Q 39.75 -1.421875 26.859375 -1.421875 
z
" id="DejaVuSans-3c9"/>
     <path d="M 3.609375 54.6875 
L 56 54.6875 
L 56 45.703125 
L 49.125 45.703125 
L 49.125 12.109375 
Q 49.125 8.59375 50.3125 7.046875 
Q 51.515625 5.515625 54.203125 5.515625 
Q 54.9375 5.515625 56 5.640625 
Q 57.078125 5.765625 57.421875 5.8125 
L 57.421875 -0.6875 
Q 55.71875 -1.3125 53.90625 -1.609375 
Q 52.09375 -1.90625 50.296875 -1.90625 
Q 44.4375 -1.90625 42.1875 1.296875 
Q 39.9375 4.5 39.9375 13.09375 
L 39.9375 45.703125 
L 19.78125 45.703125 
L 19.78125 0 
L 10.59375 0 
L 10.59375 45.703125 
L 3.609375 45.703125 
z
" id="DejaVuSans-3c0"/>
     <path d="M 16.5 54.6875 
L 16.5 19.28125 
Q 16.5 12.703125 18.953125 9.578125 
Q 21.625 6.203125 26.859375 6.203125 
Q 34.1875 6.203125 39.3125 16.359375 
Q 42.1875 22.125 42.921875 31.25 
Q 43.3125 36.234375 41.84375 42.484375 
Q 40.484375 48.296875 35.296875 54.6875 
L 44.390625 54.6875 
L 44.390625 54.6875 
Q 47.796875 50.296875 50 44.28125 
Q 52.046875 38.671875 52.046875 31.15625 
Q 52.046875 18.796875 45.796875 9.671875 
Q 38.1875 -1.46875 25.78125 -1.421875 
Q 17.046875 -1.421875 12.109375 4.4375 
Q 7.328125 10.203125 7.328125 19.828125 
L 7.28125 54.6875 
z
" id="DejaVuSans-3c5"/>
     <path d="M 35.65625 79.984375 
L 45.375 79.984375 
L 29.46875 61.625 
L 21.984375 61.625 
z
M 19.28125 29.5 
Q 13.8125 30.671875 10.890625 33.84375 
Q 7.953125 36.96875 7.953125 41.5 
Q 7.953125 48.390625 13.53125 52.25 
Q 19.046875 56.0625 28.609375 56.0625 
Q 32.328125 56.0625 36.46875 55.46875 
Q 40.625 54.890625 45.40625 53.71875 
L 45.40625 45.5625 
Q 40.671875 46.96875 36.765625 47.609375 
Q 32.8125 48.25 29.34375 48.25 
Q 23.53125 48.25 20.171875 46 
Q 16.75 43.75 16.75 40.625 
Q 16.75 37.203125 20.0625 35.015625 
Q 23.34375 32.859375 29 32.859375 
L 36.578125 32.859375 
L 36.578125 25.4375 
L 29.34375 25.4375 
Q 22.65625 25.4375 19.140625 22.953125 
Q 15.328125 20.21875 15.328125 15.921875 
Q 15.328125 11.53125 19.4375 8.796875 
Q 23.578125 6.0625 30.953125 6.0625 
Q 35.5 6.0625 39.65625 6.9375 
Q 43.796875 7.859375 47.265625 9.671875 
L 47.265625 1.3125 
Q 42.875 -0.046875 38.765625 -0.734375 
Q 34.625 -1.421875 30.71875 -1.421875 
Q 19.09375 -1.421875 12.796875 3.03125 
Q 6.5 7.46875 6.5 15.921875 
Q 6.5 21.1875 9.859375 24.75 
Q 13.234375 28.328125 19.28125 29.5 
z
" id="DejaVuSans-3ad"/>
     <path d="M 35.75 -12.203125 
L 28.46875 6.5 
L 13.484375 -20.84375 
L 2.875 -20.84375 
L 24.078125 17.828125 
L 15.1875 40.828125 
Q 12.796875 46.96875 5.28125 46.96875 
L 2.875 46.96875 
L 2.875 54.6875 
L 6.296875 54.59375 
Q 18.890625 54.25 22.078125 46.09375 
L 29.296875 27.390625 
L 44.28125 54.734375 
L 54.890625 54.734375 
L 33.6875 16.0625 
L 42.578125 -6.9375 
Q 44.96875 -13.09375 52.484375 -13.09375 
L 54.890625 -13.09375 
L 54.890625 -20.796875 
L 51.46875 -20.703125 
Q 38.875 -20.359375 35.75 -12.203125 
z
" id="DejaVuSans-3c7"/>
     <path d="M 54.890625 33.015625 
L 54.890625 -20.796875 
L 45.90625 -20.796875 
L 45.90625 32.71875 
Q 45.90625 40.484375 42.875 44.328125 
Q 39.84375 48.1875 33.796875 48.1875 
Q 26.515625 48.1875 22.3125 43.546875 
Q 18.109375 38.921875 18.109375 30.90625 
L 18.109375 0 
L 9.078125 0 
L 9.078125 54.6875 
L 18.109375 54.6875 
L 18.109375 46.1875 
Q 21.34375 51.125 25.6875 53.5625 
Q 30.078125 56 35.796875 56 
Q 45.21875 56 50.046875 50.203125 
Q 54.890625 44.34375 54.890625 33.015625 
z
" id="DejaVuSans-3b7"/>
     <path d="M 9.328125 54.6875 
L 18.609375 54.6875 
L 18.609375 31.984375 
L 42.1875 54.6875 
L 53.125 54.6875 
L 31.59375 34.078125 
L 56.5 0 
L 45.515625 0 
L 25.296875 28.21875 
L 18.609375 21.921875 
L 18.609375 0 
L 9.328125 0 
z
" id="DejaVuSans-3ba"/>
    </defs>
    <g transform="translate(15.805313 20.16)scale(0.12 -0.12)">
     <use xlink:href="#DejaVuSans-391"/>
     <use x="68.408203" xlink:href="#DejaVuSans-3c1"/>
     <use x="131.884766" xlink:href="#DejaVuSans-3b9"/>
     <use x="165.722656" xlink:href="#DejaVuSans-3b8"/>
     <use x="226.904297" xlink:href="#DejaVuSans-3bc"/>
     <use x="290.527344" xlink:href="#DejaVuSans-3cc"/>
     <use x="351.708984" xlink:href="#DejaVuSans-3c2"/>
     <use x="410.400391" xlink:href="#DejaVuSans-20"/>
     <use x="442.1875" xlink:href="#DejaVuSans-3c4"/>
     <use x="502.392578" xlink:href="#DejaVuSans-3c9"/>
     <use x="586.132812" xlink:href="#DejaVuSans-3bd"/>
     <use x="641.992188" xlink:href="#DejaVuSans-20"/>
     <use x="673.779297" xlink:href="#DejaVuSans-74"/>
     <use x="712.988281" xlink:href="#DejaVuSans-77"/>
     <use x="794.775391" xlink:href="#DejaVuSans-65"/>
     <use x="856.298828" xlink:href="#DejaVuSans-65"/>
     <use x="917.822266" xlink:href="#DejaVuSans-74"/>
     <use x="957.03125" xlink:href="#DejaVuSans-73"/>
     <use x="1009.130859" xlink:href="#DejaVuSans-20"/>
     <use x="1040.917969" xlink:href="#DejaVuSans-3c0"/>
     <use x="1101.123047" xlink:href="#DejaVuSans-3bf"/>
     <use x="1162.304688" xlink:href="#DejaVuSans-3c5"/>
     <use x="1220.166016" xlink:href="#DejaVuSans-20"/>
     <use x="1251.953125" xlink:href="#DejaVuSans-3c3"/>
     <use x="1315.332031" xlink:href="#DejaVuSans-3c5"/>
     <use x="1373.193359" xlink:href="#DejaVuSans-3bb"/>
     <use x="1432.373047" xlink:href="#DejaVuSans-3bb"/>
     <use x="1491.552734" xlink:href="#DejaVuSans-3ad"/>
     <use x="1545.605469" xlink:href="#DejaVuSans-3c7"/>
     <use x="1603.369141" xlink:href="#DejaVuSans-3b8"/>
     <use x="1664.550781" xlink:href="#DejaVuSans-3b7"/>
     <use x="1727.929688" xlink:href="#DejaVuSans-3ba"/>
     <use x="1786.865234" xlink:href="#DejaVuSans-3b1"/>
     <use x="1852.783203" xlink:href="#DejaVuSans-3bd"/>
     <use x="1908.642578" xlink:href="#DejaVuSans-20"/>
     <use x="1940.429688" xlink:href="#DejaVuSans-3b1"/>
     <use x="2006.347656" xlink:href="#DejaVuSans-3c0"/>
     <use x="2066.552734" xlink:href="#DejaVuSans-3cc"/>
     <use x="2127.734375" xlink:href="#DejaVuSans-20"/>
     <use x="2159.521484" xlink:href="#DejaVuSans-3bc"/>
     <use x="2223.144531" xlink:href="#DejaVuSans-3b7"/>
     <use x="2286.523438" xlink:href="#DejaVuSans-20"/>
     <use x="2318.310547" xlink:href="#DejaVuSans-3ad"/>
     <use x="2372.363281" xlink:href="#DejaVuSans-3bc"/>
     <use x="2435.986328" xlink:href="#DejaVuSans-3c0"/>
     <use x="2496.191406" xlink:href="#DejaVuSans-3b9"/>
     <use x="2530.029297" xlink:href="#DejaVuSans-3c3"/>
     <use x="2593.408203" xlink:href="#DejaVuSans-3c4"/>
     <use x="2653.613281" xlink:href="#DejaVuSans-3bf"/>
     <use x="2714.794922" xlink:href="#DejaVuSans-3c5"/>
     <use x="2772.65625" xlink:href="#DejaVuSans-3c2"/>
     <use x="2831.347656" xlink:href="#DejaVuSans-20"/>
     <use x="2863.134766" xlink:href="#DejaVuSans-3bb"/>
     <use x="2922.314453" xlink:href="#DejaVuSans-3bf"/>
     <use x="2983.496094" xlink:href="#DejaVuSans-3b3"/>
     <use x="3042.675781" xlink:href="#DejaVuSans-3b1"/>
     <use x="3108.59375" xlink:href="#DejaVuSans-3c1"/>
     <use x="3172.070312" xlink:href="#DejaVuSans-3b9"/>
     <use x="3205.908203" xlink:href="#DejaVuSans-3b1"/>
     <use x="3271.826172" xlink:href="#DejaVuSans-3c3"/>
     <use x="3335.205078" xlink:href="#DejaVuSans-3bc"/>
     <use x="3398.828125" xlink:href="#DejaVuSans-3bf"/>
     <use x="3460.009766" xlink:href="#DejaVuSans-3cd"/>
     <use x="3517.871094" xlink:href="#DejaVuSans-3c2"/>
    </g>
   </g>
  </g>
 </g>
 <defs>
  <clipPath id="p8eb40d3ede">
   <rect height="229.351594" width="368.19" x="46.305" y="26.16"/>
  </clipPath>
 </defs>
</svg>
